<?xml version="1.0" standalone="no"?><!DOCTYPE svg PUBLIC "-//W3C//DTD SVG 1.1//EN" "http://www.w3.org/Graphics/SVG/1.1/DTD/svg11.dtd"><svg t="1669510242566" class="icon" viewBox="0 0 1024 1024" version="1.1" xmlns="http://www.w3.org/2000/svg" p-id="1967" xmlns:xlink="http://www.w3.org/1999/xlink" width="200" height="200"><path d="M896 128.128l0.085333 150.314667-233.258666 233.216 120.661333 120.704 60.373333-60.330667 60.330667 60.330667-105.557333 105.6 120.661333 120.704-60.330667 60.330666-120.704-120.704-105.6 105.6-60.330666-60.330666 60.330666-60.373334L512 662.528l-120.661333 120.661333 60.373333 60.373334-60.330667 60.330666-105.6-105.6-120.704 120.704-60.330666-60.330666 120.746666-120.746667-105.642666-105.557333 60.330666-60.330667 60.330667 60.288 120.618667-120.661333-232.96-232.96L128 128l151.296 0.128L512 360.832 744.832 128 896 128.128zM300.8 692.650667l30.208 30.165333 120.618667-120.661333-30.165334-30.165334-120.661333 120.661334zM780.117333 213.376l-207.786666 207.744 30.122666 30.165333 208.256-208.170666v-29.738667h-30.592z m-566.741333 29.866667l479.616 479.616 30.165333-30.165334L243.882667 213.418667l-30.506667-0.042667v29.866667z" p-id="1968" fill="#1296db"></path></svg>