<?xml version="1.0" standalone="no"?><!DOCTYPE svg PUBLIC "-//W3C//DTD SVG 1.1//EN" "http://www.w3.org/Graphics/SVG/1.1/DTD/svg11.dtd"><svg t="1670500931671" class="icon" viewBox="0 0 1024 1024" version="1.1" xmlns="http://www.w3.org/2000/svg" p-id="2290" xmlns:xlink="http://www.w3.org/1999/xlink" width="200" height="200"><path d="M0 153.6a153.6 153.6 0 0 1 153.6-153.6h716.8a153.6 153.6 0 0 1 153.6 153.6v716.8a153.6 153.6 0 0 1-153.6 153.6H153.6a153.6 153.6 0 0 1-153.6-153.6V153.6z m102.4 0v716.8a51.2 51.2 0 0 0 51.2 51.2h716.8a51.2 51.2 0 0 0 51.2-51.2V153.6a51.2 51.2 0 0 0-51.2-51.2H153.6a51.2 51.2 0 0 0-51.2 51.2z m76.8 768L921.6 179.2v-25.0112s0-21.9136-15.104-36.9664C891.392 102.144 870.4768 102.4 870.4768 102.4H844.8L102.4 844.8v25.6s-0.128 18.7904 13.312 34.9952C129.1008 921.6 153.6 921.6 153.6 921.6h25.6zM102.4 563.2L563.2 102.4h-128L102.4 435.2v128z m819.2-102.4L460.8 921.6h128l332.8-332.8v-128z" fill="#20c0eb" p-id="2291"></path></svg>